<?xml version="1.0" encoding="UTF-8" standalone="no"?>
<!-- Created with Inkscape (http://www.inkscape.org/) -->

<svg
   width="210mm"
   height="297mm"
   viewBox="0 0 210 297"
   version="1.1"
   id="svg5"
   inkscape:version="1.1 (c4e8f9ed74, 2021-05-24)"
   sodipodi:docname="fiedka-flash.svg"
   inkscape:export-filename="/home/dan/Projects/Fiedka/art/fiedka.png"
   inkscape:export-xdpi="96"
   inkscape:export-ydpi="96"
   xmlns:inkscape="http://www.inkscape.org/namespaces/inkscape"
   xmlns:sodipodi="http://sodipodi.sourceforge.net/DTD/sodipodi-0.dtd"
   xmlns:xlink="http://www.w3.org/1999/xlink"
   xmlns="http://www.w3.org/2000/svg"
   xmlns:svg="http://www.w3.org/2000/svg">
  <sodipodi:namedview
     id="namedview7"
     pagecolor="#505050"
     bordercolor="#ffffff"
     borderopacity="1"
     inkscape:pageshadow="0"
     inkscape:pageopacity="0"
     inkscape:pagecheckerboard="1"
     inkscape:document-units="mm"
     showgrid="false"
     inkscape:zoom="1.4488348"
     inkscape:cx="216.03567"
     inkscape:cy="535.25771"
     inkscape:window-width="1362"
     inkscape:window-height="708"
     inkscape:window-x="0"
     inkscape:window-y="0"
     inkscape:window-maximized="1"
     inkscape:current-layer="layer5"
     inkscape:lockguides="false"
     inkscape:snap-text-baseline="true">
    <inkscape:grid
       type="xygrid"
       id="grid1580" />
  </sodipodi:namedview>
  <defs
     id="defs2">
    <linearGradient
       inkscape:collect="always"
       id="linearGradient7883">
      <stop
         style="stop-color:#000000;stop-opacity:0;"
         offset="0"
         id="stop7881" />
      <stop
         style="stop-color:#000000;stop-opacity:1;"
         offset="1"
         id="stop7879" />
    </linearGradient>
    <linearGradient
       id="linearGradient5848"
       inkscape:swatch="solid">
      <stop
         style="stop-color:#000000;stop-opacity:1;"
         offset="0"
         id="stop5846" />
    </linearGradient>
    <linearGradient
       inkscape:collect="always"
       id="linearGradient4631">
      <stop
         style="stop-color:#000000;stop-opacity:1;"
         offset="0"
         id="stop4627" />
      <stop
         style="stop-color:#000000;stop-opacity:0;"
         offset="1"
         id="stop4629" />
    </linearGradient>
    <linearGradient
       inkscape:collect="always"
       id="linearGradient4585">
      <stop
         style="stop-color:#000000;stop-opacity:1;"
         offset="0"
         id="stop4581" />
      <stop
         style="stop-color:#000000;stop-opacity:0;"
         offset="1"
         id="stop4583" />
    </linearGradient>
    <linearGradient
       inkscape:collect="always"
       id="linearGradient4577">
      <stop
         style="stop-color:#000000;stop-opacity:1;"
         offset="0"
         id="stop4573" />
      <stop
         style="stop-color:#000000;stop-opacity:0;"
         offset="1"
         id="stop4575" />
    </linearGradient>
    <rect
       x="272.02625"
       y="536.25528"
       width="119.67674"
       height="35.014672"
       id="rect21935" />
    <linearGradient
       id="linearGradient5255"
       inkscape:swatch="solid">
      <stop
         style="stop-color:#d04220;stop-opacity:1;"
         offset="0"
         id="stop5253" />
    </linearGradient>
    <linearGradient
       id="linearGradient5213"
       inkscape:swatch="solid">
      <stop
         style="stop-color:#f1ed4a;stop-opacity:1;"
         offset="0"
         id="stop5211" />
    </linearGradient>
    <marker
       style="overflow:visible"
       id="Arrow1Lstart"
       refX="0.0"
       refY="0.0"
       orient="auto"
       inkscape:stockid="Arrow1Lstart"
       inkscape:isstock="true">
      <path
         transform="scale(0.8) translate(12.5,0)"
         style="fill-rule:evenodd;fill:context-stroke;stroke:context-stroke;stroke-width:1.0pt"
         d="M 0.0,0.0 L 5.0,-5.0 L -12.5,0.0 L 5.0,5.0 L 0.0,0.0 z "
         id="path4781" />
    </marker>
    <rect
       x="272.02625"
       y="536.25531"
       width="115.22543"
       height="34.877171"
       id="rect21935-6" />
    <linearGradient
       inkscape:collect="always"
       xlink:href="#linearGradient4577"
       id="linearGradient4579"
       x1="48.460571"
       y1="139.96444"
       x2="71.02563"
       y2="139.96444"
       gradientUnits="userSpaceOnUse" />
    <linearGradient
       inkscape:collect="always"
       xlink:href="#linearGradient4585"
       id="linearGradient4587"
       x1="51.989836"
       y1="133.46401"
       x2="74.486263"
       y2="133.46401"
       gradientUnits="userSpaceOnUse" />
    <linearGradient
       inkscape:collect="always"
       xlink:href="#linearGradient4631"
       id="linearGradient4633"
       x1="57.27134"
       y1="130.79987"
       x2="79.280403"
       y2="130.79987"
       gradientUnits="userSpaceOnUse" />
    <linearGradient
       inkscape:collect="always"
       xlink:href="#linearGradient7883"
       id="linearGradient5660"
       x1="78.777809"
       y1="130.90184"
       x2="100.83051"
       y2="130.90184"
       gradientUnits="userSpaceOnUse" />
    <linearGradient
       inkscape:collect="always"
       xlink:href="#linearGradient7883"
       id="linearGradient7847"
       x1="82.814812"
       y1="137.47221"
       x2="106.53584"
       y2="137.47221"
       gradientUnits="userSpaceOnUse" />
  </defs>
  <g
     inkscape:groupmode="layer"
     id="layer3"
     inkscape:label="bg"
     style="display:none">
    <ellipse
       style="display:inline;fill:#122d12;fill-opacity:1;stroke:#f1ed4a;stroke-width:1.5;stroke-linecap:round;stroke-linejoin:round;stroke-miterlimit:4;stroke-dasharray:none;stroke-opacity:1;paint-order:stroke fill markers"
       id="path19326"
       cx="79.68708"
       cy="125.57983"
       rx="51.423"
       ry="51.422665" />
  </g>
  <g
     inkscape:groupmode="layer"
     id="layer5"
     inkscape:label="chip">
    <g
       id="g985"
       transform="rotate(90,78.815504,151.17006)"
       inkscape:export-filename="/home/dan/Projects/Fiedka/art/chip.png"
       inkscape:export-xdpi="96"
       inkscape:export-ydpi="96">
      <rect
         style="display:inline;fill:#121212;fill-opacity:1;stroke:#f1ed4a;stroke-width:2.2;stroke-linecap:round;stroke-linejoin:bevel;stroke-miterlimit:4;stroke-dasharray:none;stroke-opacity:1;paint-order:markers stroke fill"
         id="rect846"
         width="30.083355"
         height="31.760468"
         x="63.762188"
         y="135.28983" />
      <rect
         style="display:inline;fill:none;stroke:#f1ed4a;stroke-width:1.5;stroke-linecap:round;stroke-linejoin:bevel;stroke-opacity:1;paint-order:markers stroke fill"
         id="rect1079-5"
         width="7.6418953"
         height="3.7654572"
         x="94.645912"
         y="137.77669" />
      <rect
         style="display:inline;fill:none;stroke:#f1ed4a;stroke-width:1.5;stroke-linecap:round;stroke-linejoin:bevel;stroke-opacity:1;paint-order:markers stroke fill"
         id="rect1079-3-3"
         width="7.5601854"
         height="3.7654572"
         x="94.716545"
         y="145.32443" />
      <rect
         style="display:inline;fill:none;stroke:#f1ed4a;stroke-width:1.5;stroke-linecap:round;stroke-linejoin:bevel;stroke-opacity:1;paint-order:markers stroke fill"
         id="rect1079-6-5"
         width="7.6198158"
         height="3.7654572"
         x="94.659325"
         y="152.94644" />
      <rect
         style="display:inline;fill:none;stroke:#f1ed4a;stroke-width:1.5;stroke-linecap:round;stroke-linejoin:bevel;stroke-opacity:1;paint-order:markers stroke fill"
         id="rect1079-3-7-6"
         width="7.6564851"
         height="3.7654572"
         x="94.621498"
         y="160.49419" />
      <rect
         style="display:inline;fill:none;stroke:#f1ed4a;stroke-width:1.5;stroke-linecap:round;stroke-linejoin:bevel;stroke-opacity:1;paint-order:markers stroke fill"
         id="rect1079-5-2"
         width="7.6586728"
         height="3.7654572"
         x="55.354286"
         y="137.55878" />
      <rect
         style="display:inline;fill:none;stroke:#f1ed4a;stroke-width:1.5;stroke-linecap:round;stroke-linejoin:bevel;stroke-opacity:1;paint-order:markers stroke fill"
         id="rect1079-3-3-9"
         width="7.6609426"
         height="3.7654572"
         x="55.343201"
         y="145.10652" />
      <rect
         style="display:inline;fill:none;stroke:#f1ed4a;stroke-width:1.5;stroke-linecap:round;stroke-linejoin:bevel;stroke-opacity:1;paint-order:markers stroke fill"
         id="rect1079-6-5-1"
         width="7.6778407"
         height="3.7654572"
         x="55.345619"
         y="152.72853" />
      <rect
         style="display:inline;fill:none;stroke:#f1ed4a;stroke-width:1.5;stroke-linecap:round;stroke-linejoin:bevel;stroke-opacity:1;paint-order:markers stroke fill"
         id="rect1079-3-7-6-2"
         width="7.6777143"
         height="3.7654572"
         x="55.344452"
         y="160.27628" />
      <circle
         style="display:inline;fill:#f1ed4a;fill-opacity:1;stroke:#f1ed4a;stroke-width:2.53569;stroke-linecap:round;stroke-linejoin:bevel;stroke-opacity:1;paint-order:markers stroke fill"
         id="path1381"
         cx="88.285629"
         cy="162.18056"
         r="0.67483759" />
      <text
         xml:space="preserve"
         transform="matrix(0,-0.26458333,0.26458333,0,-66.256384,238.01529)"
         id="text21933"
         style="font-style:normal;font-weight:normal;font-size:18.6667px;line-height:1.25;font-family:sans-serif;white-space:pre;shape-inside:url(#rect21935);display:inline;fill:#f1ed4a;fill-opacity:1;stroke:none"><tspan
           x="272.02539"
           y="552.77151"
           id="tspan37273">25Е128ДКА</tspan></text>
      <text
         xml:space="preserve"
         transform="matrix(0,-0.26458333,0.26458333,0,-75.080016,225.49919)"
         id="text21933-1"
         style="font-style:normal;font-weight:normal;font-size:21.3333px;line-height:1.25;font-family:sans-serif;white-space:pre;shape-inside:url(#rect21935-6);display:inline;fill:#f1ed4a;fill-opacity:1;stroke:none"><tspan
           x="272.02539"
           y="555.13083"
           id="tspan37275">Ф</tspan></text>
    </g>
  </g>
  <g
     inkscape:groupmode="layer"
     id="layer2"
     inkscape:label="tentacles"
     style="display:none">
    <path
       id="path4220"
       style="color:#000000;display:inline;fill:#f1ed4a;stroke:url(#linearGradient4633);stroke-linecap:round;stroke-linejoin:round;stroke-miterlimit:4.5;-inkscape-stroke:none;paint-order:stroke markers fill"
       d="m 76.904297,121.10547 c -1.510996,0.0861 -2.178458,1.71174 -2.306641,3.01367 -0.236435,1.31444 -1.161413,2.44044 -2.438681,2.85905 -2.11585,0.73881 -4.127085,1.73089 -6.132254,2.72543 -2.641838,1.26022 -4.74142,3.36824 -6.738479,5.45808 -0.901032,1.14175 -2.031555,2.38133 -2.016758,3.92424 0.02303,0.88917 0.978708,1.78951 1.84961,1.25 2.12965,-1.29665 2.977523,-3.97976 5.207031,-5.16016 1.048201,-0.66128 2.018195,-1.48228 3.255859,-1.75586 1.828442,-0.65939 3.634661,-1.3863 5.472657,-2.01367 2.244427,-1.53373 5.756778,-3.53737 6.639748,-6.29093 0.418901,-1.23979 -0.0175,-2.36952 -1.089201,-3.41076 -0.446822,-0.4255 -1.090112,-0.63786 -1.702891,-0.59909 z"
       sodipodi:nodetypes="ccccccccccccc" />
    <path
       id="path4220-3"
       style="color:#000000;display:inline;fill:#f1ed4a;stroke:url(#linearGradient5660);stroke-linecap:round;stroke-linejoin:round;stroke-miterlimit:4.5;-inkscape-stroke:none;paint-order:stroke markers fill"
       d="m 80.896484,121.20898 c -1.35787,0.0162 -3.188514,0.7889 -2.960367,2.07738 0.243514,2.03039 2.135759,4.56552 3.75154,5.84043 1.121479,0.90906 2.319031,1.74672 3.555515,2.4814 2.206842,0.72141 4.353495,1.62932 6.543549,2.38419 1.403721,1.01153 3.082582,1.72475 4.094574,3.19087 1.021151,1.16747 1.835756,2.65857 3.284721,3.34409 1.157374,0.41037 0.891364,-1.56879 0.852394,-2.59705 -0.620351,-2.1835 -0.904304,-3.8031 -2.570296,-5.3915 -1.401845,-1.33412 -2.951578,-2.4213 -4.709904,-3.2428 -1.905616,-0.91899 -2.838588,-1.87076 -4.842967,-2.56005 -1.257486,-0.40502 -3.70607,-2.12539 -3.952153,-3.42473 -0.159246,-1.28882 -1.151946,-1.91838 -2.655903,-2.08682 -0.128671,-0.0215 -0.260649,-0.0173 -0.390703,-0.0154 z"
       sodipodi:nodetypes="sccccccccccccss" />
    <path
       id="path4220-3-6"
       style="color:#000000;display:inline;fill:#f1ed4a;stroke:url(#linearGradient7847);stroke-linecap:round;stroke-linejoin:round;stroke-miterlimit:4.5;stroke-opacity:1;-inkscape-stroke:none;paint-order:stroke markers fill"
       d="m 85.418095,119.50827 c 0,-1.35797 -3.12647,0.96583 -2.898323,2.25431 0.243514,2.03039 3.44153,3.96251 5.057311,5.23742 7.710569,3.74687 11.072612,6.57593 12.41729,8.91793 1.420777,2.76883 2.677017,4.17892 2.677017,5.50183 0,2.64584 -1.85916,10.05428 -3.182077,11.3772 -1.32291,1.32292 0,0 -2.64583,1.32292 -1.322917,1.32291 2.467013,2.1679 3.968747,1.32291 2.92478,-2.97328 2.86612,-1.60686 4.41602,-5.07623 0.95918,-1.981 1.83357,-6.60144 2.13118,-8.75546 0,-2.64583 -1.97923,-8.54507 -4.59066,-10.88531 -2.917569,-2.36736 -5.414669,-4.68188 -13.636344,-8.99156 -0.703385,-1.27722 -3.323628,-2.21055 -3.323628,-2.21055 -0.128671,-0.0215 -0.390703,0.11467 -0.390703,-0.0154 z"
       sodipodi:nodetypes="sccccccccccccss" />
    <path
       id="path4220-3-6-2-3"
       style="color:#000000;display:inline;fill:#f1ed4a;stroke:url(#linearGradient4579);stroke-linecap:round;stroke-linejoin:round;stroke-miterlimit:4.5;-inkscape-stroke:none;paint-order:stroke markers fill"
       d="m 69.69824,118.54368 c 1.302953,0.38258 1.46974,0.33232 1.241593,1.6208 -1.235608,1.67247 -4.027004,3.29184 -4.965279,4.9302 -3.963264,4.42229 -14.307632,7.86701 -13.984718,15.63703 -1.112582,7.3575 2.371791,12.49023 2.371791,13.81314 0,2.64584 1.80388,4.23868 3.1268,5.5616 1.322911,1.32292 0,0 2.645831,1.32292 1.322917,1.32291 -2.467011,2.1679 -3.968751,1.32291 -2.92478,-2.97328 -2.86612,-1.60686 -4.41602,-5.07623 -0.95918,-1.981 -2.725298,-5.75315 -3.022908,-7.90717 -1.02366,-3.29641 -0.760815,-4.00377 -0.266008,-11.98667 0.739998,-5.59006 8.376885,-11.2747 15.035071,-17.09936 0.805364,-0.66892 3.077942,-3.40199 4.581899,-3.57043 0.931726,-1.03981 0.847281,1.20417 0.972084,1.24081 z"
       sodipodi:nodetypes="sccccccccccccss" />
    <path
       id="path4220-3-6-2"
       style="color:#000000;display:inline;fill:#f1ed4a;stroke:url(#linearGradient4587);stroke-linecap:round;stroke-linejoin:round;stroke-miterlimit:4.5;-inkscape-stroke:none;paint-order:stroke markers fill"
       d="m 72.385478,119.67167 c 0,-1.35797 2.923443,1.40114 2.695296,2.68962 -0.243514,2.03039 -2.709336,3.5272 -4.325117,4.80211 -7.710569,3.74687 -11.379667,6.317 -12.724351,8.659 -1.42078,2.76883 -2.67702,4.17892 -2.67702,5.50183 0,2.64584 1.047249,1.99149 2.370169,3.31441 1.322911,1.32292 0,0 2.645831,1.32292 1.322917,1.32291 -2.467011,2.1679 -3.968751,1.32291 -3.659389,-2.82904 -1.380356,-0.78515 -3.659389,-2.82904 -0.95918,-1.981 -0.4547,-1.5697 -0.75231,-3.72372 0,-2.64583 1.60445,-6.8346 4.21588,-9.17484 2.917574,-2.36736 4.761543,-5.13596 12.983218,-9.44564 1.093257,-1.53884 1.247491,-2.12216 2.223367,-2.59603 0.128671,-0.0215 0.973177,0.28654 0.973177,0.15648 z"
       sodipodi:nodetypes="sccccccccccccss" />
  </g>
  <g
     inkscape:groupmode="layer"
     id="layer4"
     inkscape:label="head"
     style="display:none">
    <circle
       style="display:inline;fill:#f1ed4a;fill-opacity:1;stroke:#f1ed4a;stroke-width:0.253725;stroke-linecap:round;stroke-linejoin:round;stroke-miterlimit:4.5;stroke-dasharray:none;stroke-opacity:1;paint-order:stroke markers fill"
       id="path11443"
       sodipodi:type="arc"
       sodipodi:cx="79.295799"
       sodipodi:cy="103.69662"
       sodipodi:rx="20.076952"
       sodipodi:ry="20.076952"
       sodipodi:start="0"
       sodipodi:end="3.1416692"
       sodipodi:arc-type="slice"
       d="m 99.372751,103.69662 a 20.076952,20.076952 0 0 1 -10.038919,17.3874 20.076952,20.076952 0 0 1 -20.077396,-7.6e-4 20.076952,20.076952 0 0 1 -10.037589,-17.38818 l 20.076952,0.002 z" />
    <ellipse
       style="display:inline;fill:#f1ed4a;fill-opacity:1;stroke-width:1.5;stroke-linecap:round;stroke-linejoin:bevel;paint-order:markers stroke fill"
       id="path989"
       cx="79.363754"
       cy="100.68434"
       rx="20.50975"
       ry="19.344528" />
  </g>
  <g
     inkscape:label="face"
     inkscape:groupmode="layer"
     id="layer1"
     style="display:none">
    <path
       style="display:inline;fill:none;stroke:#000000;stroke-width:1.765;stroke-linecap:round;stroke-linejoin:round;stroke-miterlimit:4;stroke-dasharray:none;stroke-opacity:1;paint-order:stroke fill markers"
       d="m 84.551816,111.23491 c -0.527071,2.32974 -4.313836,3.40816 -5.965269,3.49335 -1.722866,-0.0406 -5.685663,-1.01552 -6.011581,-3.5624"
       id="path14900"
       sodipodi:nodetypes="ccc" />
    <ellipse
       style="fill:#050505;fill-opacity:1;stroke:#f1ed4a;stroke-width:0.264999;stroke-linecap:round;stroke-linejoin:round;stroke-miterlimit:4.5;stroke-dasharray:none;stroke-opacity:1;paint-order:stroke markers fill"
       id="path14609"
       ry="2.5594056"
       rx="2.3490641"
       cy="102.5864"
       cx="70.727806" />
    <ellipse
       style="fill:#050505;fill-opacity:1;stroke:#f1ed4a;stroke-width:0.264999;stroke-linecap:round;stroke-linejoin:round;stroke-miterlimit:4.5;stroke-dasharray:none;stroke-opacity:1;paint-order:stroke markers fill"
       id="path14609-6"
       ry="2.5594056"
       rx="2.3490641"
       cy="102.71838"
       cx="86.797012" />
  </g>
</svg>
